<svg xmlns="http://www.w3.org/2000/svg" width="80" height="80" viewBox="0 0 80 80">
  <defs>
    <style>
      .cls-1 {
        fill: #fff;
        fill-rule: evenodd;
      }
    </style>
  </defs>
  <path id="Forma_1_копия_3" data-name="Forma 1 копия 3" class="cls-1" d="M984.751,1079.9l-29.337-20a1.33,1.33,0,0,0-2.084,1.1v40a1.326,1.326,0,0,0,.711,1.18,1.257,1.257,0,0,0,.623.16,1.359,1.359,0,0,0,.75-0.23l29.337-20.01A1.329,1.329,0,0,0,984.751,1079.9ZM956,1098.48v-34.96L981.633,1081Zm8-57.48a40.005,40.005,0,1,0,40,40A40.045,40.045,0,0,0,964,1041Zm0,77.34A37.34,37.34,0,1,1,1001.34,1081,37.381,37.381,0,0,1,964,1118.34Z" transform="translate(-924 -1041)"/>
</svg>
